{"title":"The Paw Project (2013)","uid":10672987,"size":685221714,"categoryP":"video","categoryS":"movies","magnet":"?xt=urn:btih:214271e553d7bc77bcf1c9bd99eea5138da69d93&amp;dn=The+Paw+Project+%282013%29&amp;tr=udp%3A%2F%2Ftracker.openbittorrent.com%3A80&amp;tr=udp%3A%2F%2Fopen.demonii.com%3A1337&amp;tr=udp%3A%2F%2Ftracker.coppersurfer.tk%3A6969&amp;tr=udp%3A%2F%2Fexodus.desync.com%3A6969","seeders":7,"leechers":0,"uploader":"Squiddy82","files":-1,"time":1406902310,"description":"This is a David and Goliath story of one veterinarian's battle to protect her patients (tigers, lions and even house cats) from big corporations, with their big corporate money, that will shamelessly do anything to animals to increase their bottom line. She starts a grassroots movement that is fueled by passion, but appears to be losing the battle. Then, unexpectedly, she realizes that the corporations accidentally left her a giant loophole. In a scramble to take advantage of this unforeseen gift, she leads the crusade passing legislation protecting animals from de-clawing in seven cities in just six weeks.\n\n\nGeneral\nFormat : AVI\nFormat/Info : Audio Video Interleave\nFile size : 653 MiB\nDuration : 57mn 2s\nOverall bit rate : 1 602 Kbps\nMovie name : THE_PAW_PROJECT_Title1\nWriting application : MEncoder 5.0\n\nVideo\nID : 0\nFormat : MPEG-4 Visual\nFormat profile : Simple@L1\nFormat settings, BVOP : No\nFormat settings, QPel : No\nFormat settings, GMC : No warppoints\nFormat settings, Matrix : Default (H.263)\nCodec ID : DX50\nCodec ID/Hint : DivX 5\nDuration : 57mn 2s\nBit rate : 1 461 Kbps\nWidth : 720 pixels\nHeight : 404 pixels\nDisplay aspect ratio : 16:9\nFrame rate : 29.970 fps\nColor space : YUV\nChroma subsampling : 4:2:0\nBit depth : 8 bits\nScan type : Progressive\nCompression mode : Lossy\nBits/(Pixel*Frame) : 0.168\nStream size : 596 MiB (91%)\nWriting library : Lavc54.79.100\n\nAudio\nID : 1\nFormat : MPEG Audio\nFormat version : Version 1\nFormat profile : Layer 3\nCodec ID : 55\nCodec ID/Hint : MP3\nDuration : 57mn 2s\nBit rate mode : Constant\nBit rate : 128 Kbps\nChannel(s) : 2 channels\nSampling rate : 44.1 KHz\nCompression mode : Lossy\nStream size : 52.2 MiB (8%)\nAlignment : Aligned on interleaves\nInterleave, duration : 26 ms (0.78 video frame)\nInterleave, preload duration : 522 ms\n","torrent":{"xt":"urn:btih:214271e553d7bc77bcf1c9bd99eea5138da69d93","amp;dn":"The+Paw+Project+%282013%29","amp;tr":["udp%3A%2F%2Ftracker.openbittorrent.com%3A80","udp%3A%2F%2Fopen.demonii.com%3A1337","udp%3A%2F%2Ftracker.coppersurfer.tk%3A6969","udp%3A%2F%2Fexodus.desync.com%3A6969"],"infoHash":"214271e553d7bc77bcf1c9bd99eea5138da69d93","infoHashBuffer":{"type":"Buffer","data":[33,66,113,229,83,215,188,119,188,241,201,189,153,238,165,19,141,166,157,147]},"announce":[],"urlList":[]}}